<svg width="18" height="24" viewBox="0 0 18 24" fill="none" xmlns="http://www.w3.org/2000/svg">
<path d="M1.73313 9.36269C1.76956 8.82808 1.97565 8.32925 2.31034 7.96554C2.64504 7.60182 3.08378 7.39991 3.5392 7.40002H14.4608C14.9162 7.39991 15.355 7.60182 15.6897 7.96554C16.0244 8.32925 16.2304 8.82808 16.2669 9.36269L16.9942 20.0294C17.0142 20.3229 16.9824 20.6181 16.9007 20.8965C16.8191 21.1748 16.6894 21.4303 16.5199 21.6467C16.3503 21.8631 16.1445 22.0359 15.9155 22.154C15.6864 22.2722 15.4391 22.3333 15.189 22.3334H2.81098C2.56092 22.3333 2.31358 22.2722 2.08454 22.154C1.8555 22.0359 1.64972 21.8631 1.48015 21.6467C1.31058 21.4303 1.18089 21.1748 1.09925 20.8965C1.01762 20.6181 0.985802 20.3229 1.00581 20.0294L1.73313 9.36269V9.36269Z" stroke="black" stroke-width="1.59219" stroke-linecap="round" stroke-linejoin="round"/>
<path d="M12.623 10.6V5.26667C12.623 4.13508 12.2413 3.04983 11.5618 2.24968C10.8824 1.44952 9.96085 1 8.99996 1C8.03908 1 7.11755 1.44952 6.43811 2.24968C5.75866 3.04983 5.37695 4.13508 5.37695 5.26667V10.6" stroke="black" stroke-width="1.59219" stroke-linecap="round" stroke-linejoin="round"/>
</svg>