<svg width="1028" height="503" viewBox="0 0 1028 503" fill="none" xmlns="http://www.w3.org/2000/svg">
<path d="M581.813 381.046C570.363 364.955 552.996 343.329 539.411 338.816C531.912 333.432 520.326 328.532 507.915 323.391L501.59 320.746C501.758 316.622 500.216 313.466 496.795 311.129C475.869 296.876 454.644 276.804 434.253 254.587C434.8 253.458 435.117 252.206 435.117 250.823C435.116 245.628 430.888 240.984 425.688 240.448C424.186 240.293 422.814 240.258 421.332 240.122C415.384 233.262 409.567 226.329 403.885 219.329C404.859 217.955 405.565 216.357 405.565 214.463C405.563 209.259 401.336 204.616 396.145 204.081C395.658 204.031 393.957 203.863 391.362 203.678C384.732 195.204 378.209 186.679 371.796 178.105C372.203 177.101 372.472 176.017 372.471 174.84C372.47 169.636 368.253 164.986 363.062 164.45C362.555 164.398 362.097 164.384 361.61 164.334C355.567 156.075 349.576 147.795 343.635 139.492C343.933 138.593 344.221 137.667 344.221 136.647C344.22 131.451 339.982 126.807 334.801 126.273L334.145 126.221C309.913 92.4028 305.507 87.2224 298.794 86.5301C294.359 86.0726 290.243 85.895 286.235 85.8192C284.723 83.4156 283.181 81.0747 281.679 78.6392C276.993 71.0588 266.988 61.5383 246.015 59.3751C214.243 56.098 170.653 71.1394 145.069 81.5503C120.813 70.527 100.188 63.9866 83.949 62.3116C67.3719 60.6018 59.6563 64.2766 56.4251 66.6521C56.2263 66.7715 55.9876 66.8292 55.7987 66.9744C37.923 81.3007 26.425 110.347 19.0438 139.53C7.27745 169.331 6.00086 194.451 6.19267 206.112C5.46349 206.743 4.83627 207.452 4.32372 208.225C-2.54483 219.331 -1.1314 265.328 8.53684 276.279C33.3341 304.467 58.7059 323.698 85.5696 344.064C115.954 367.097 147.363 390.912 184.285 431.399C216.094 466.296 282.308 491.247 365.968 499.876C477.423 511.372 596.756 490.92 596.744 442.17C596.731 388.504 589.738 382.119 581.813 381.046ZM570.866 388.2C549.324 413.65 449.279 418.249 361.193 409.163C331.788 406.13 305.833 401.774 288.082 396.88C263.499 390.104 240.337 380.701 218.616 369.782C239.007 349.788 275.919 350.162 313.528 354.041C328.136 355.548 343.211 357.646 359.192 359.887C375.51 362.163 392.386 364.513 409.072 366.234C449.347 370.388 500.051 372.308 537.982 350.953C544.775 355.045 558.273 370.377 570.866 388.2ZM452.571 300.524C458.33 306.091 463.761 311.369 468.426 316.057C474.801 322.478 488.406 328.121 502.786 334.092C510.225 337.181 517.714 340.333 523.631 343.355C490.184 359.731 447.255 358.176 409.069 354.238C393.487 352.631 377.616 350.434 362.162 348.272C362.129 335.153 359.819 321.577 355.909 313.006C378.45 304.364 410.855 297.143 452.571 300.524ZM409.185 258.011C416.772 265.649 424.441 273.233 432.191 280.762C394.563 280.396 365.061 287.883 344.022 296.458C336.646 287.089 329.212 277.749 321.72 268.437C341.636 261.369 370.125 255.884 409.185 258.011ZM390.356 238.648C354.389 238.635 327.691 244.822 308.59 252.329C302.582 244.974 296.684 237.845 290.935 230.97C319.989 222.416 353.331 221.343 374.561 221.787C379.932 227.635 385.174 233.206 390.356 238.648ZM277.337 214.912C270.151 206.507 262.873 198.151 255.504 189.846C276.445 184.514 304.665 180.369 339.717 181.704C345.567 188.787 351.539 195.807 357.632 202.759C334.293 203.143 304.064 205.805 277.337 214.912ZM359.317 182.984C363.704 188.871 368.23 194.854 372.905 200.918C367.634 194.938 362.451 188.909 357.358 182.832C358.015 182.883 358.651 182.915 359.317 182.984ZM331.485 144.826C335.623 150.596 339.98 156.644 344.595 163.007C343.382 162.931 342.229 162.927 341.025 162.869C336.188 156.769 331.436 150.628 326.771 144.447C328.362 144.578 329.884 144.677 331.485 144.826ZM240.753 173.587C233.87 166.101 226.864 158.69 219.736 151.355C241.214 145.872 271.064 141.64 309.797 143.322C314.631 149.863 319.475 156.25 324.31 162.446C289.058 162.432 261.157 167.631 240.753 173.587ZM296.779 98.3591C300.3 101.719 308.268 112.503 317.19 124.868C315.52 124.761 313.839 124.646 312.198 124.559C306.003 115.856 299.994 107.075 294.173 98.2222C295.058 98.2887 295.864 98.2813 296.779 98.3591ZM246.018 71.3795C257.255 72.5385 264.744 76.3655 268.902 83.0763C277.445 96.8851 286.438 110.533 295.87 124.003C255.537 123.473 225.13 129.179 203.762 135.604C182.835 115.538 165.151 101.356 150.86 93.3612C174.822 83.4829 217.11 68.3978 246.018 71.3795ZM67.3458 75.6906C68.877 74.9429 73.6 73.24 83.942 74.3067C91.957 75.1334 104.785 77.8974 123.591 85.2875C98.3534 85.0391 84.3958 100 73.1422 112.375C65.905 120.306 59.1052 127.797 52.7409 127.42C48.8418 122.901 55.7965 98.4498 67.3458 75.6906ZM37.9739 126.679C38.4916 129.038 39.3672 131.137 40.6603 132.868C43.3262 136.395 47.4634 138.592 52.3162 139.092C66.7751 140.584 75.6924 130.784 85.1367 120.396C96.43 108.009 108.091 95.1988 129.69 97.4266C141.762 98.6718 162.648 113.637 190.309 140.062C183.399 142.659 178.079 145.132 174.062 147.179C172.949 146.755 171.785 146.468 170.611 146.329C163.024 145.547 156.88 151.055 156.882 158.63C156.884 166.204 163.031 172.98 170.618 173.763C177.261 174.448 182.799 170.302 184.07 164.159C190.971 160.729 198.244 157.78 205.825 155.338C213.127 162.781 220.287 170.316 227.3 177.938C220.922 180.217 214.748 182.81 208.806 185.705C207.628 185.233 206.388 184.919 205.136 184.775C197.559 183.993 191.415 189.493 191.417 197.076C191.419 204.659 197.566 211.427 205.143 212.208C211.677 212.882 217.115 208.865 218.506 202.892C225.891 199.351 233.64 196.293 241.693 193.74C249.083 201.987 256.742 210.689 264.63 219.884C256.501 223.489 249.021 227.925 242.339 233.104C241.971 233.033 241.623 232.923 241.245 232.884C233.638 232.1 227.504 237.609 227.505 245.184C227.507 252.75 233.644 259.533 241.252 260.318C248.68 261.084 254.715 255.762 254.912 248.389C261.695 243.151 269.426 238.805 277.889 235.47C283.907 242.628 290.064 250.023 296.361 257.67C289.092 261.254 282.362 265.48 276.267 270.286C275.959 270.238 275.66 270.133 275.352 270.101C267.784 269.32 261.631 274.836 261.632 282.411C261.634 289.977 267.791 296.762 275.359 297.543C282.857 298.316 288.901 292.929 289.049 285.494C295.151 280.838 301.921 276.808 309.242 273.473C316.875 282.918 324.438 292.398 331.931 301.913C325.12 305.239 318.655 308.988 312.583 313.131C311.946 312.975 311.32 312.812 310.674 312.745C303.076 311.961 296.942 317.479 296.944 325.045C296.946 332.62 303.083 339.395 310.68 340.179C317.781 340.911 323.577 336.067 324.251 329.187C330.319 325.115 336.796 321.46 343.629 318.252C346.525 325.335 347.76 336.067 347.703 346.286C336.324 344.677 324.936 343.258 313.545 342.03C270.824 337.624 228.791 337.545 205.389 362.894C143.171 328.92 94.355 283.056 62.3769 249.821C63.0863 223.186 55.107 205.674 47.1178 188.886C40.4519 174.844 34.164 161.549 33.4833 142.921C34.8243 137.453 36.3047 131.99 37.9739 126.679ZM33.6445 192.066C39.7433 204.888 45.494 217.37 47.3576 233.922C44.7218 231.073 42.255 228.39 39.9872 225.916C29.9311 214.983 24.6196 209.297 20.7408 206.361C20.7862 194.499 22.1078 182.796 24.6899 171.391C27.297 178.732 30.5006 185.459 33.6445 192.066ZM365.965 487.871C286.64 479.689 224.515 456.733 195.48 424.897C157.594 383.339 124.136 357.979 94.6165 335.594C68.4192 315.742 43.6839 296.98 19.9012 269.975C15.0472 264.156 13.0602 231.15 15.921 218.7C19.3624 222.192 24.1468 227.386 28.8217 232.479C67.5639 274.644 158.297 373.367 285.121 408.324C303.807 413.47 330.836 418.028 361.196 421.16C429.334 428.188 544.983 430.524 579.709 399.642C580.954 406.588 582.18 418.94 582.185 440.652C582.194 477.044 479.131 499.544 365.965 487.871Z" fill="black"/>
<path d="M634.405 191.351C644.608 180.907 659.533 167.215 668.751 166.091C674.413 163.235 682.483 161.465 691.106 159.651L695.506 158.708C696.22 155.491 697.79 153.32 700.349 152.109C715.995 144.735 732.976 132.916 749.871 119.293C749.759 118.325 749.812 117.302 750.086 116.233C751.116 112.218 754.626 109.364 757.919 109.855C758.87 109.997 759.718 110.209 760.653 110.362C765.656 106.094 770.593 101.749 775.461 97.3266C775.136 96.0955 775.02 94.737 775.396 93.2734C776.427 89.2514 779.937 86.3984 783.224 86.8883C783.532 86.9342 784.607 87.1011 786.235 87.4097C791.975 82.0141 797.66 76.5601 803.289 71.0488C803.238 70.2021 803.288 69.3177 803.521 68.4076C804.552 64.3857 808.058 61.5254 811.345 62.0152C811.666 62.0631 811.949 62.1317 812.257 62.1777C817.595 56.8463 822.907 51.4889 828.191 46.1058C828.187 45.3585 828.193 44.5931 828.396 43.804C829.425 39.7884 832.941 36.9363 836.222 37.4253L836.634 37.4999C858.18 15.5781 861.906 12.3411 866.157 12.9745C868.965 13.3931 871.523 13.9725 873.994 14.6116C875.396 13.017 876.805 11.476 878.208 9.85496C882.58 4.81138 890.597 -0.805594 903.877 1.17364C923.996 4.17205 947.73 23.3876 961.346 35.8889C978.392 31.5913 992.327 30.1267 1002.61 31.6592C1013.11 33.2237 1017.11 37.4074 1018.62 39.8061C1018.72 39.9331 1018.85 40.0193 1018.94 40.1644C1027.05 54.3502 1028.35 78.8039 1027.09 102.646C1028.4 127.73 1024.21 147.369 1021.78 156.349C1022.11 156.964 1022.35 157.621 1022.51 158.308C1024.52 168.088 1014.55 203.396 1006.45 210.178C985.677 227.648 966.321 238.097 945.827 249.161C922.646 261.676 898.683 274.615 868.04 299.482C841.638 320.918 796.122 328.676 743.145 320.781C672.569 310.263 603.492 273.678 613.152 235.998C623.787 194.519 629.336 190.801 634.405 191.351ZM639.697 198.786C647.859 222.209 708.256 243.182 764.034 251.495C782.654 254.27 799.422 255.421 811.269 254.729C827.675 253.772 843.731 250.535 859.203 245.877C850.667 226.872 827.973 220.735 804.158 217.186C794.908 215.807 785.254 214.804 775.017 213.754C764.567 212.673 753.76 211.551 743.194 209.976C717.691 206.175 686.239 198.832 667.224 175.721C662.251 177.702 650.943 187.202 639.697 198.786ZM729.549 151.612C724.918 154.912 720.545 158.046 716.758 160.858C711.579 164.711 702.125 166.704 692.13 168.816C686.96 169.908 681.747 171.041 677.522 172.347C694.776 190.828 721.391 197.1 745.571 200.704C755.438 202.175 765.599 203.24 775.497 204.259C778.115 194.124 782.219 184.033 786.312 178.089C774.21 167.484 755.782 156.261 729.549 151.612ZM764.554 126.304C758.392 130.887 752.191 135.414 745.951 139.884C769.082 146.153 785.678 157.076 796.873 167.367C803.249 161.41 809.654 155.484 816.088 149.591C805.283 140.66 788.911 131.461 764.554 126.304ZM779.927 114.615C801.97 120.867 817.105 130.298 827.324 139.425C832.462 134.787 837.488 130.303 842.373 125.99C826.262 114.319 806.042 107.685 792.944 104.332C788.495 107.918 784.18 111.311 779.927 114.615ZM853.885 115.945C859.953 110.699 866.067 105.507 872.227 100.371C860.451 92.6036 843.978 84.4864 822.234 79.4155C817.247 83.8725 812.197 88.2585 807.086 92.5721C821.312 96.932 839.309 104.252 853.885 115.945ZM809.969 76.9931C806.115 80.7793 802.157 84.6161 798.091 88.4896C802.506 84.785 806.876 81.0269 811.2 77.2161C810.788 77.1415 810.391 77.0559 809.969 76.9931ZM834.581 52.3436C830.902 56.0833 827.035 59.9997 822.947 64.1143C823.705 64.267 824.413 64.465 825.161 64.6294C829.334 60.7569 833.462 56.8372 837.544 52.8712C836.543 52.6956 835.591 52.5075 834.581 52.3436ZM884.486 90.3716C890.186 85.7837 895.947 81.2746 901.768 76.846C889.692 68.8687 872.237 60.4004 848.169 54.9568C843.911 59.1718 839.678 63.2648 835.489 67.2125C857.094 73.3394 873.162 82.2157 884.486 90.3716ZM865.05 22.4689C862.227 24.4531 855.209 31.4016 847.292 39.4055C848.337 39.6141 849.39 39.8172 850.413 40.0357C855.932 34.3873 861.353 28.6465 866.673 22.8166C866.118 22.714 865.626 22.568 865.05 22.4689ZM901.498 10.4521C894.382 9.39159 889.036 11.0459 885.159 15.5092C877.189 24.6956 868.976 33.6791 860.529 42.4485C885.349 49.0614 902.853 58.7659 914.675 67.452C931.473 55.5852 945.118 47.7018 955.459 44.0102C942.73 32.2028 919.803 13.1802 901.498 10.4521ZM1010.13 44.8913C1009.34 44.0468 1006.79 41.9082 1000.24 40.9322C995.163 40.1758 986.755 40.0789 973.767 42.517C989.282 46.7189 994.873 60.7132 999.319 72.2377C1002.18 79.6283 1004.87 86.6022 1008.84 87.4192C1012.13 84.6052 1012.71 64.4941 1010.13 44.8913ZM1018.04 89.4174C1017.25 91.1505 1016.3 92.6207 1015.17 93.7332C1012.83 95.9954 1009.86 96.9732 1006.79 96.5153C997.635 95.1507 994.111 86.0233 990.38 76.3497C985.913 64.8087 981.303 52.8767 967.626 50.8384C959.982 49.6991 944.22 57.6303 922.037 73.24C925.757 76.4505 928.527 79.2881 930.583 81.57C931.35 81.4356 932.12 81.4166 932.866 81.5138C937.671 82.2299 940.345 87.5573 938.844 93.412C937.343 99.2667 932.235 103.434 927.43 102.718C923.224 102.091 920.651 97.922 921.088 92.9526C917.539 89.1 913.666 85.5542 909.504 82.3463C903.555 86.8285 897.676 91.4061 891.869 96.0769C895.326 98.9486 898.596 102.028 901.664 105.3C902.479 105.141 903.301 105.113 904.097 105.22C908.895 105.935 911.571 111.256 910.068 117.117C908.566 122.978 903.459 127.139 898.661 126.424C894.523 125.807 891.986 121.756 892.317 116.896C888.492 112.874 884.349 109.161 879.92 105.786C873.758 110.873 867.342 116.266 860.687 122C864.955 126.202 868.66 130.933 871.729 136.1C871.969 136.109 872.204 136.085 872.443 136.12C877.26 136.838 879.929 142.165 878.427 148.02C876.928 153.868 871.824 158.043 867.007 157.325C862.303 156.624 859.659 151.459 860.998 145.726C857.878 140.496 854.002 135.79 849.476 131.739C844.371 136.225 839.133 140.868 833.76 145.683C837.505 149.719 840.793 154.158 843.576 158.933C843.774 158.95 843.978 158.92 844.173 158.95C848.965 159.664 851.644 164.998 850.143 170.853C848.644 176.701 843.527 180.874 838.735 180.16C833.987 179.452 831.35 174.236 832.732 168.463C829.914 163.802 826.563 159.508 822.738 155.656C816.19 161.628 809.678 167.639 803.202 173.688C806.717 177.445 809.937 181.468 812.838 185.729C813.259 185.719 813.675 185.701 814.084 185.762C818.895 186.479 821.561 191.812 820.062 197.66C818.561 203.515 813.459 207.684 808.648 206.967C804.152 206.296 801.559 201.543 802.508 196.108C799.596 191.903 796.351 187.951 792.798 184.281C789.622 189.252 786.739 197.332 784.751 205.242C792.043 205.979 799.302 206.865 806.526 207.899C833.578 211.931 859.351 219.188 868.672 242.856C913.527 227.427 952.523 200.475 978.7 180.353C983.539 159.642 991.897 147.495 1000.12 135.909C1006.98 126.216 1013.47 117.034 1017.57 102.754C1017.83 98.2933 1018.01 93.8134 1018.04 89.4174ZM1007.74 140.712C1001.47 149.562 995.472 158.209 991.052 170.678C993.232 168.935 995.275 167.291 997.154 165.774C1005.48 159.073 1009.86 155.603 1012.82 154.009C1015.14 144.832 1016.65 135.556 1017.32 126.29C1014.27 131.511 1010.98 136.153 1007.74 140.712ZM745.524 311.503C795.755 318.989 838.371 312.06 862.467 292.507C893.913 266.98 919.438 253.203 941.96 241.04C961.944 230.256 980.817 220.06 1000.74 203.327C1004.87 199.674 1012.62 174.507 1013.33 164.385C1010.53 166.485 1006.57 169.668 1002.7 172.79C970.606 198.638 895.457 259.15 810.817 264.09C798.347 264.815 780.881 263.632 761.657 260.767C718.51 254.337 647.178 236.008 632.012 206.091C629.874 211.243 626.677 220.578 622.374 237.36C615.163 265.488 673.865 300.823 745.524 311.503Z" fill="black"/>
</svg>
