<?xml version="1.0" encoding="UTF-8" standalone="no"?>
<svg
   width="439.47321"
   height="369.37363"
   viewBox="0 0 439.47321 369.37363"
   fill="none"
   version="1.1"
   id="svg2"
   sodipodi:docname="shoes-image.svg"
   inkscape:version="1.3 (0e150ed6c4, 2023-07-21)"
   xmlns:inkscape="http://www.inkscape.org/namespaces/inkscape"
   xmlns:sodipodi="http://sodipodi.sourceforge.net/DTD/sodipodi-0.dtd"
   xmlns="http://www.w3.org/2000/svg"
   xmlns:svg="http://www.w3.org/2000/svg">
  <defs
     id="defs2" />
  <sodipodi:namedview
     id="namedview2"
     pagecolor="#ffffff"
     bordercolor="#000000"
     borderopacity="0.25"
     inkscape:showpageshadow="2"
     inkscape:pageopacity="0.0"
     inkscape:pagecheckerboard="0"
     inkscape:deskcolor="#d1d1d1"
     showgrid="false"
     inkscape:zoom="0.54391892"
     inkscape:cx="526.73292"
     inkscape:cy="330.01242"
     inkscape:window-width="1920"
     inkscape:window-height="1009"
     inkscape:window-x="-8"
     inkscape:window-y="-8"
     inkscape:window-maximized="1"
     inkscape:current-layer="svg2" />
  <path
     d="m 213.66579,178.28575 c -4.64,-9.156 -11.585,-21.373 -16.606,-23.478 -2.867,-2.9 -7.185,-5.327 -11.806,-7.861 l -2.356,-1.307 c -0.076,-2.485 -0.734,-4.312 -2.038,-5.564 -7.977,-7.629 -16.254,-18.74 -24.303,-31.178 0.159,-0.702 0.231,-1.469 0.185,-2.3 -0.172,-3.121 -1.842,-5.722 -3.725,-5.812 -0.544,-0.026 -1.037,0.015 -1.573,-10e-4 -2.36,-3.856297 -4.676,-7.761497 -6.946,-11.713897 0.304,-0.8685 0.504,-1.8605 0.441,-2.9982 -0.173,-3.1263 -1.843,-5.7272 -3.722,-5.817 -0.176,-0.0085 -0.792,-0.033 -1.729,-0.0284 -2.658,-4.795 -5.28,-9.6257 -7.864,-14.491 0.113,-0.6211 0.173,-1.2843 0.134,-1.9917 -0.173,-3.1262 -1.839,-5.7319 -3.719,-5.8218 -0.183,-0.0087 -0.348,0.0031 -0.524,-0.0053 -2.441,-4.6918 -4.864,-9.3992 -7.27,-14.1221 0.078,-0.5538 0.15,-1.1226 0.116,-1.736 -0.172,-3.1213 -1.846,-5.7224 -3.722,-5.8121 l -0.237,-0.0014 c -9.8104,-19.2364 -11.5623,-22.152 -13.9924,-22.2682 -1.6056,-0.0768 -3.087904,4e-4 -4.527604,0.1338 -0.6219,-1.3766 -1.2524,-2.7141 -1.8718,-4.1103 -1.9315,-4.3451296 -5.8354,-9.61828063 -13.4281,-9.98127863 -11.5025,-0.549918 -26.6364,10.43397863 -35.4659,17.83147863 -9.064,-5.5395 -16.6773,-8.5479196 -22.55639,-8.8289896 -6.00147,-0.28692 -8.646621,2.2655896 -9.726655,3.8370896 -0.06735,0.0806 -0.151018,0.126 -0.213949,0.2216 -5.9357162,9.4058 -9.0964162,27.3708 -10.7762062,45.2339 -3.23190002,18.4302 -2.85720002,33.5794 -2.4019,40.5773 -0.2406,0.4113 -0.44200002,0.8653 -0.60020002,1.352497 -2.09509998,6.98 -0.0638,34.552 3.76640002,40.7 9.8269102,15.828 19.5630502,26.249 29.8718002,37.285 11.6598,12.482 23.7128,25.387 38.2955,48.063 12.564,19.546 37.136004,31.58 67.424404,33.028 40.35,1.929 82.467,-15.688 80.847,-44.978 -1.783,-32.242 -4.502,-35.766 -7.38,-36.057 z m -3.689,4.787 c -6.882,16.253 -42.607,23.485 -74.497,21.96 -10.646,-0.509 -20.0982,-1.967 -26.6263,-4.115 -9.040504,-2.973 -17.658304,-7.588 -25.809504,-13.178 6.6496,-12.924 19.899304,-14.348 33.514804,-13.697 5.289,0.253 10.765,0.841 16.57,1.473 5.928,0.639 12.057,1.297 18.098,1.586 14.581,0.697 32.828,-0.414 45.723,-14.939 2.572,2.156 7.92,10.764 13.027,20.91 z m -45.328,-47.393 c 2.25,3.087 4.372,6.016 6.2,8.624 2.5,3.573 7.565,6.356 12.92,9.301 2.77,1.524 5.56,3.083 7.783,4.635 -11.452,11.332 -26.899,12.316 -40.723,11.655 -5.642,-0.27 -11.406,-0.881 -17.02,-1.49 -0.446,-7.88 -1.725,-15.934 -3.411,-20.909 7.797,-6.198 19.179,-11.984 34.251,-11.816 z m -16.968,-23.604 c 2.974,4.25 5.975,8.464 9.004,12.641 -13.506,1.461 -23.838,7.277 -31.099,13.368 -2.955,-5.299 -5.931,-10.579 -8.926,-15.839 6.908,-5.136 16.943,-9.704 31.021,-10.17 z m -7.394,-10.793 c -12.899,1.598 -22.268,6.508 -28.8694,11.871 -2.3983,-4.15 -4.7499,-8.17 -7.0395,-12.044 10.1358,-6.437097 22.0569,-8.570697 29.6859,-9.251997 2.12,3.2737 4.184,6.3868 6.223,9.424997 z M 98.969386,92.069553 c -2.8555,-4.7294 -5.7425,-9.4246 -8.6605,-14.085 7.333,-4.1389 17.315704,-7.8898 29.930904,-8.6533 2.332,3.9946 4.706,7.9453 7.122,11.8506 -8.357,1.2729 -19.1094,4.2222 -28.392404,10.8877 z m 28.341404,-22.8442 c 1.768,3.3407 3.59,6.7332 5.467,10.168 -2.088,-3.3575 -4.147,-6.7485 -6.175,-10.1723 0.237,0.0015 0.467,-0.0073 0.708,0.0043 z m -11.246,-21.683 c 1.675,3.282 3.438,6.7211 5.304,10.3378 -0.437,0.0087 -0.851,0.058 -1.285,0.0767 -1.937,-3.4486 -3.844,-6.9262 -5.7219,-10.4318 0.5749,0.0078 1.1238,-5e-4 1.7029,0.0173 z m -31.584704,21.3325 c -2.7163,-4.1902 -5.4746,-8.3302 -8.2739,-12.4187 7.5205,-4.2534 18.0853,-8.1293 32.031004,-8.8489 1.9505,3.7145 3.8994,7.3352 5.8384,10.8419 -12.6422,1.5664 -22.475804,5.9361 -29.595504,10.4257 z m 17.598504,-47.7001 c 1.374,1.8615 4.5888,7.9848 8.1985,15.015 -0.6026,0.0107 -1.2091,0.0162 -1.8004,0.0373 -2.5101,-4.9521 -4.9562,-9.9591 -7.337,-15.0183 0.3196,5e-4 0.6082,-0.04 0.9389,-0.034 z M 82.980786,7.2321034 c 4.0682,0.19449 6.8806,2.15931 8.5942,6.0055496 3.5213,7.9149 7.1987,15.713 11.027704,23.3845 -14.481604,1.4833 -25.197004,6.2697 -32.647004,11.0839 -8.1698,-11.1211 -14.9816,-18.8521 -20.3717,-23.0171 8.2659,-7.0052 22.9311,-17.9571996 33.3968,-17.4568496 z M 19.048846,17.802153 c 0.52433,-0.5176 2.16163,-1.7517 5.90579,-1.5727 2.90175,0.1387 7.59385,1.2264 14.58285,4.8266 -9.059,0.9779 -13.5686,10.59 -17.19412,18.5275 -2.33254,5.0884 -4.5228,9.8926 -6.817602,9.9507 -1.548068,-2.5408 0.135628,-17.5423 3.523082,-31.7321 z m -8.84332,31.9464 c 0.26381,1.394 0.64739,2.6161 1.16849,3.5982 1.07292,2 2.62941,3.1352 4.386284,3.2191 5.234626,0.2503 8.107736,-6.0358 11.150286,-12.6987 3.6394,-7.9467 7.3967,-16.164 15.2163,-15.7902 4.3706,0.209 12.3567,8.2674 23.152,22.9084 -2.3921,1.8689 -4.2178,3.5922 -5.5904,5.0018 -0.4132,-0.2055 -0.8401,-0.3257 -1.2657,-0.3566 -2.7469,-0.1313 -4.7677,3.4526 -4.516,8.0035 0.2517,4.5509 2.6807,8.3475 5.4277,8.4788 2.4049,0.115 4.2534,-2.6236 4.5057,-6.3709 2.3611,-2.369 4.8715,-4.4656 7.5094,-6.2717 2.8654,4.146 5.6826,8.3532 8.4502,12.6195 -2.2117,1.6539 -4.3399,3.4875 -6.3748,5.4922 -0.4381,-0.2307 -0.8932,-0.3642 -1.3468,-0.395 -2.7433,-0.1311 -4.7644,3.4478 -4.5124,8.0037 0.252,4.5558 2.6808,8.3475 5.4241,8.4786 2.3653,0.1131 4.1824,-2.5431 4.4832,-6.1944 2.5311,-2.4569 5.2087,-4.6405 8.012,-6.5338 2.9236,4.6244 5.9586,9.5107 9.0921,14.6828 -2.7957,2.529 -5.3312,5.528897 -7.5558,8.938897 -0.1343,-0.026 -0.2628,-0.077 -0.3996,-0.084 -2.7541,-0.131 -4.7713,3.453 -4.5196,8.004 0.2515,4.546 2.6772,8.347 5.4313,8.479 2.6893,0.128 4.677,-3.339 4.5034,-7.777 2.259,-3.45 4.8872,-6.407 7.8118,-8.789 2.395404,4.032 4.848504,8.2 7.360004,12.514 -2.4877,2.478 -4.7615,5.317 -6.7878,8.477 -0.1122,-0.016 -0.2227,-0.065 -0.3343,-0.071 -2.739704,-0.131 -4.763804,3.458 -4.512104,8.009 0.2515,4.546 2.6843,8.348 5.424104,8.479 2.7145,0.129 4.7037,-3.377 4.51,-7.851 2.0343,-3.07 4.3285,-5.794 6.8433,-8.124 3.0503,5.334 6.0769,10.692 9.0789,16.073 -2.332,2.303 -4.526,4.844 -6.5664,7.605 -0.2334,-0.066 -0.4635,-0.136 -0.6975,-0.147 -2.7505,-0.132 -4.7675,3.457 -4.516,8.003 0.2517,4.551 2.6771,8.348 5.4276,8.479 2.5703,0.123 4.4883,-3.046 4.5023,-7.21 2.041,-2.718 4.243,-5.203 6.587,-7.435 1.273,4.126 2.072,10.518 2.39,16.661 -4.134,-0.459 -8.265,-0.803 -12.391,-1.031 -15.466,-0.74 -30.542404,1.09 -38.094604,17.365 -23.4383,-17.633 -42.4647,-43.008 -55.03406,-61.548 -0.62837,-16.034 -4.07029,-26.199297 -7.491748,-35.929097 -2.855892,-8.1388 -5.5514522,-15.8457 -6.4129822,-27.0071 0.2997,-3.3455 0.64952,-6.6934 1.0721302,-9.959 z m 0.61449,39.4783 c 2.61211,7.4315 5.088089,14.673897 6.30498,24.534897 -1.039685,-1.594 -2.013238,-3.096 -2.9085,-4.48 -3.96863,-6.12 -6.0618502,-9.298997 -7.5501802,-10.889597 -0.37684,-7.1288 -0.29077,-14.2192 0.25718,-21.1873 1.17827,4.2943 2.55011,8.1933 3.8965202,12.022 z M 139.79979,252.10775 c -28.7186,-1.373 -51.758804,-12.391 -63.226104,-30.221 -14.9642,-23.277 -27.8032,-37.019 -39.1311,-49.149 -10.0528,-10.758 -19.54511,-20.926 -28.9689802,-36.088 -1.93363,-3.28 -3.74012,-23.021 -3.12682,-30.629 1.34991,1.944 3.23781,4.851 5.0831102,7.702 15.29109,23.603 51.10139,78.865 97.741194,94.203 6.8717,2.257 16.7157,3.789 27.7067,4.314 24.669,1.18 66.22,-2.582 77.65,-22.687 0.676,4.117 1.525,11.484 2.247,24.529 1.209,21.864 -35.005,39.985 -75.975,38.026 z"
     fill="#000000"
     id="path1" />
  <path
     d="m 206.75479,284.25275 c 4.382,-10.609 11.072,-24.829 16.488,-27.609 2.948,-3.481 7.552,-6.558 12.486,-9.783 l 2.514,-1.66 c -0.129,-2.777 0.446,-4.871 1.792,-6.379 8.236,-9.194 16.506,-22.296 24.407,-36.857 -0.238,-0.77 -0.385,-1.618 -0.405,-2.549 -0.077,-3.495 1.561,-6.539 3.652,-6.801 0.604,-0.076 1.158,-0.074 1.754,-0.137 2.299,-4.504 4.544,-9.057 6.734,-13.66 -0.414,-0.942 -0.723,-2.031 -0.751,-3.305 -0.077,-3.5 1.561,-6.544 3.648,-6.806 0.196,-0.025 0.88,-0.105 1.925,-0.181 2.551,-5.575 5.057,-11.187 7.519,-16.835 -0.18,-0.682 -0.304,-1.417 -0.322,-2.209 -0.077,-3.5 1.557,-6.549 3.644,-6.811 0.204,-0.026 0.389,-0.027 0.585,-0.052 2.316,-5.441 4.612,-10.899 6.886,-16.372 -0.133,-0.611 -0.263,-1.238 -0.278,-1.925 -0.077,-3.495 1.564,-6.54 3.648,-6.801 l 0.264,-0.022 c 9.279,-22.293997 10.981,-25.695797 13.68,-26.034897 1.784,-0.2241 3.443,-0.266 5.06,-0.2413 0.574,-1.5885 1.162,-3.1342 1.732,-4.7443 1.779,-5.0111 5.677,-11.227 14.111,-12.2866 12.777,-1.6053 30.597,9.3356 41.08,16.8218 9.628,-6.958 17.857,-10.9689 24.387,-11.7893 6.667,-0.8376 9.836,1.7801 11.176,3.439 0.082,0.0842 0.179,0.1275 0.257,0.2287 7.43,9.9748 12.503,29.731897 15.917,49.502897 5.193,20.27 6.082,37.193 6.178,45.034 0.303,0.438 0.567,0.927 0.786,1.457 2.938,7.6 3.051,38.517 -0.689,45.702 -9.591,18.494 -19.548,30.953 -30.089,44.147 -11.923,14.922 -24.249,30.35 -38.551,56.89 -12.322,22.876 -38.681,38.412 -72.325,42.639 -44.822,5.631 -93.299,-10.378 -94.019,-43.173 -0.793,-36.102 1.935,-40.266 5.119,-40.838 z m 4.525,5.019 c 9.075,17.527 49.53,22.509 84.954,18.058 11.825,-1.486 22.238,-3.927 29.331,-6.884 9.823,-4.095 19.033,-9.984 27.639,-16.919 -8.528,-13.836 -23.424,-14.28 -38.548,-12.38 -5.875,0.738 -11.929,1.865 -18.347,3.071 -6.554,1.224 -13.331,2.486 -20.042,3.329 -16.196,2.035 -36.636,2.37 -52.266,-12.711 -2.681,2.625 -7.902,12.684 -12.721,24.436 z m 46.45,-56.75 c -2.242,3.636 -4.356,7.084 -6.169,10.15 -2.478,4.2 -7.886,7.739 -13.603,11.485 -2.957,1.937 -5.933,3.916 -8.277,5.838 13.746,11.647 31.052,11.411 46.409,9.482 6.266,-0.787 12.641,-1.966 18.847,-3.129 -0.182,-8.824 0.549,-17.914 2,-23.606 -9.228,-6.238 -22.417,-11.707 -39.207,-10.22 z m 16.882,-27.781 c -2.949,4.995 -5.932,9.952 -8.949,14.871 15.185,0.464 27.206,6.057 35.827,12.222 2.838,-6.163 5.7,-12.306 8.586,-18.429 -8.145,-5.131 -19.727,-9.358 -35.464,-8.664 z m 7.313,-12.671 c 14.52,0.67 25.389,5.336 33.211,10.746 2.316,-4.834 4.592,-9.519 6.81,-14.036 -11.856,-6.302 -25.331,-7.653 -33.895,-7.755 -2.081,3.833 -4.115,7.482 -6.126,11.045 z m 45.271,-13.835 c 2.776,-5.52 5.59,-11.004 8.441,-16.451 -8.532,-3.982 -19.986,-7.303 -34.116,-7.066 -2.256,4.654 -4.563,9.264 -6.919,13.826 9.427,0.699 21.67,3.06 32.594,9.691 z m -33.569,-23.026 c -1.683,3.878 -3.421,7.817 -5.218,11.809 2.039,-3.924 4.042,-7.882 6.007,-11.874 -0.264,0.022 -0.521,0.032 -0.789,0.065 z m 10.669,-25.145 c -1.585,3.804 -3.254,7.79 -5.023,11.984 0.489,-0.028 0.955,-0.009 1.44,-0.025 1.862,-4.013 3.689,-8.054 5.48,-12.125 -0.641,0.058 -1.253,0.097 -1.897,0.166 z m 37.054,21.06 c 2.668,-4.906 5.386,-9.76 8.154,-14.559 -8.752,-4.094 -20.865,-7.504 -36.476,-7.104 -1.854,4.31 -3.714,8.515 -5.574,12.592 14.23,0.656 25.571,4.68 33.896,9.071 z m -23.735,-51.664197 c -1.371,2.194197 -4.428,9.298197 -7.846,17.448197 0.673,-0.04 1.35,-0.086 2.011,-0.114 2.371,-5.738 4.667,-11.531 6.885,-17.377197 -0.357,0.0281 -0.682,0.0078 -1.05,0.043 z m 20.09,-17.1924 c -4.519,0.5678 -7.485,3.001 -9.064,7.4371 -3.243,9.1284 -6.671,18.139497 -10.278,27.023497 16.274,0.405 28.634,4.817 37.355,9.542 8.15,-13.104 15.078,-22.311 20.728,-27.419997 -9.82,-7.0974 -27.116,-18.0431 -38.741,-16.5826 z m 72.192,6.2705 c -0.63,-0.5319 -2.562,-1.7666 -6.721,-1.244 -3.223,0.4049 -8.36,2.0223 -15.842,6.6391 10.184,0.3089 16.041,10.636997 20.768,19.173997 3.04,5.472 5.896,10.639 8.46,10.506 1.507,-2.966 -1.665,-19.547 -6.665,-35.075097 z m 12.615,34.855097 c -0.174,1.577 -0.496,2.973 -0.993,4.113 -1.023,2.322 -2.661,3.722 -4.612,3.967 -5.815,0.731 -9.56,-6.03 -13.527,-13.196 -4.744,-8.546 -9.642,-17.384 -18.328,-16.293 -4.854,0.61 -13.063,10.284 -23.837,27.538 2.829,1.878 5.013,3.642 6.665,5.095 0.443,-0.265 0.908,-0.436 1.38,-0.507 3.052,-0.383 5.614,3.438 5.726,8.534 0.111,5.096 -2.269,9.538 -5.321,9.921 -2.671,0.336 -4.968,-2.558 -5.573,-6.714 -2.836,-2.438 -5.816,-4.559 -8.913,-6.345 -2.837,4.87 -5.615,9.804 -8.333,14.799 2.608,1.653 5.14,3.514 7.581,5.574 0.469,-0.295 0.965,-0.484 1.468,-0.557 3.047,-0.383 5.609,3.433 5.721,8.534 0.112,5.102 -2.269,9.538 -5.316,9.921 -2.627,0.33 -4.883,-2.474 -5.533,-6.519 -3.034,-2.521 -6.207,-4.725 -9.496,-6.594 -2.861,5.408 -5.823,11.118 -8.871,17.155 3.335,2.578 6.421,5.704 9.195,9.314 0.148,-0.041 0.287,-0.108 0.439,-0.128 3.059,-0.384 5.617,3.438 5.729,8.534 0.112,5.09 -2.265,9.537 -5.324,9.922 -2.987,0.375 -5.503,-3.319 -5.692,-8.283 -2.816,-3.652 -6.002,-6.721 -9.468,-9.124 -2.323,4.702 -4.698,9.56 -7.126,14.586 2.987,2.548 5.767,5.518 8.299,8.866 0.124,-0.027 0.243,-0.092 0.367,-0.107 3.043,-0.383 5.609,3.444 5.721,8.539 0.112,5.091 -2.273,9.539 -5.316,9.921 -3.015,0.379 -5.536,-3.359 -5.706,-8.364 -2.533,-3.247 -5.325,-6.086 -8.33,-8.467 -2.941,6.21 -5.853,12.445 -8.737,18.704 2.799,2.366 5.465,5.01 7.978,7.912 0.254,-0.093 0.505,-0.191 0.765,-0.224 3.055,-0.384 5.613,3.444 5.725,8.534 0.112,5.095 -2.265,9.537 -5.32,9.921 -2.855,0.359 -5.267,-3.009 -5.642,-7.65 -2.51,-2.854 -5.179,-5.435 -7.985,-7.722 -1.063,4.71 -1.403,11.906 -1.228,18.783 4.57,-0.868 9.146,-1.608 13.726,-2.219 17.18,-2.159 34.147,-1.419 43.971,16.075 24.612,-21.681 43.636,-51.614 56.051,-73.369 -0.683,-17.931 2.278,-29.561 5.254,-40.704 2.482,-9.321 4.822,-18.146 4.82,-30.665 -0.622,-3.704 -1.301,-7.406 -2.054,-11.011 z m 2.72,44.069 c -2.271,8.511 -4.407,16.799 -4.913,27.899 1.021,-1.867 1.977,-3.626 2.856,-5.247 3.897,-7.165 5.956,-10.89 7.479,-12.792 -0.195,-7.98 -0.903,-15.878 -2.115,-23.6 -0.943,4.89 -2.136,9.355 -3.307,13.74 z m -129.754,192.727 c 31.9,-4.008 56.638,-18.28 67.886,-39.149 14.676,-27.243 27.805,-43.671 39.389,-58.173 10.28,-12.861 19.986,-25.016 29.185,-42.734 1.873,-3.824 2.185,-25.99 0.845,-34.419 -1.338,2.284 -3.192,5.688 -5.003,9.026 -15.013,27.635 -50.172,92.336 -100.85,113.46 -7.466,3.11 -18.31,5.666 -30.519,7.2 -27.402,3.443 -74.053,2.833 -88.531,-18.597 -0.399,4.649 -0.71,12.936 -0.39,27.541 0.538,24.482 42.478,41.562 87.988,35.845 z"
     fill="#000000"
     id="path2" />
</svg>
